<svg xmlns="http://www.w3.org/2000/svg" viewBox="0 0 367.48 600.59"><defs><style>.cls-1{fill:#231f20;}</style></defs><g id="Layer_2" data-name="Layer 2"><g id="Layer_1-2" data-name="Layer 1"><rect class="cls-1" x="337.09" y="320.85" width="30.39" height="195.95" rx="11.82"/><rect class="cls-1" x="281.11" y="267.1" width="31.44" height="307.96" rx="12.23"/><rect class="cls-1" x="225.13" y="244.71" width="31.44" height="137.36" rx="12.23"/><rect class="cls-1" x="225.13" y="452.35" width="31.44" height="145.11" rx="12.23"/><rect class="cls-1" x="169.14" y="241.57" width="31.44" height="97.35" rx="12.23"/><rect class="cls-1" x="169.14" y="495.49" width="31.44" height="105.1" rx="12.23"/><rect class="cls-1" x="113.16" y="156.72" width="31.44" height="225.35" rx="12.23"/><rect class="cls-1" x="113.16" y="452.35" width="31.44" height="144.1" rx="12.23"/><rect class="cls-1" x="57.18" y="44.04" width="31.44" height="528.22" rx="12.23"/><rect class="cls-1" width="30.39" height="263.05" rx="11.82"/><rect class="cls-1" y="304.06" width="30.39" height="214.01" rx="11.82"/><path class="cls-1" d="M190.1,373.92a42.26,42.26,0,1,0,34.39,48.88A42.26,42.26,0,0,0,190.1,373.92Zm-7.86,74a32.34,32.34,0,1,1,32.34-32.33A32.34,32.34,0,0,1,182.24,447.89Z"/><path class="cls-1" d="M169.23,395.71a26.56,26.56,0,0,1,35.54,24.5,23.21,23.21,0,0,0-37.31-23.78C168,396.18,168.63,395.93,169.23,395.71Z"/></g></g></svg>